<svg width="224" height="30" viewBox="0 0 224 43" fill="none" xmlns="http://www.w3.org/2000/svg">
    <g clip-path="url(#clip0)">
        <path d="M43.49 31.3C42.09 31.3 40.77 31.04 39.53 30.52C38.29 29.98 37.31 29.24 36.59 28.3C36.45 28.1 36.38 27.9 36.38 27.7C36.38 27.5 36.43 27.33 36.53 27.19C36.65 27.03 36.8 26.91 36.98 26.83C37.14 26.77 37.27 26.74 37.37 26.74C37.55 26.74 37.7 26.79 37.82 26.89C37.96 26.97 38.12 27.11 38.3 27.31C39.6 28.69 41.33 29.38 43.49 29.38C44.53 29.38 45.37 29.2 46.01 28.84C46.65 28.48 46.97 27.98 46.97 27.34C46.97 26.88 46.84 26.51 46.58 26.23C46.34 25.93 45.92 25.66 45.32 25.42C44.74 25.16 43.78 24.8 42.44 24.34C41.14 23.9 40.12 23.48 39.38 23.08C38.64 22.68 38.09 22.23 37.73 21.73C37.37 21.21 37.19 20.58 37.19 19.84C37.19 18.68 37.69 17.75 38.69 17.05C39.71 16.35 41.06 16 42.74 16C43.98 16 45.13 16.22 46.19 16.66C47.25 17.08 48.05 17.65 48.59 18.37C48.75 18.59 48.83 18.8 48.83 19C48.83 19.3 48.67 19.54 48.35 19.72C48.15 19.84 47.95 19.9 47.75 19.9C47.41 19.9 47.09 19.75 46.79 19.45C46.27 18.93 45.7 18.55 45.08 18.31C44.46 18.05 43.67 17.92 42.71 17.92C41.65 17.92 40.84 18.09 40.28 18.43C39.72 18.77 39.44 19.25 39.44 19.87C39.44 20.33 39.55 20.7 39.77 20.98C40.01 21.24 40.38 21.48 40.88 21.7C41.4 21.9 42.3 22.21 43.58 22.63C45.02 23.11 46.13 23.57 46.91 24.01C47.71 24.43 48.28 24.9 48.62 25.42C48.98 25.94 49.16 26.58 49.16 27.34C49.16 28.54 48.63 29.5 47.57 30.22C46.53 30.94 45.17 31.3 43.49 31.3ZM62.618 28.03C62.838 28.21 62.948 28.42 62.948 28.66C62.948 28.86 62.858 29.1 62.678 29.38C62.258 29.96 61.678 30.43 60.938 30.79C60.198 31.13 59.438 31.3 58.658 31.3C57.338 31.3 56.298 30.91 55.538 30.13C54.778 29.35 54.398 28.28 54.398 26.92V18.13H52.778C51.978 18.13 51.578 17.82 51.578 17.2C51.578 16.92 51.678 16.7 51.878 16.54C52.098 16.38 52.398 16.3 52.778 16.3H54.398V11.17C54.398 10.79 54.488 10.5 54.668 10.3C54.868 10.08 55.148 9.97 55.508 9.97C55.848 9.97 56.108 10.08 56.288 10.3C56.488 10.5 56.588 10.79 56.588 11.17V16.3H60.668C61.028 16.3 61.308 16.38 61.508 16.54C61.728 16.68 61.838 16.9 61.838 17.2C61.838 17.82 61.448 18.13 60.668 18.13H56.588V27.1C56.588 28.64 57.308 29.41 58.748 29.41C59.208 29.41 59.628 29.32 60.008 29.14C60.388 28.96 60.768 28.67 61.148 28.27C61.448 27.95 61.738 27.79 62.018 27.79C62.198 27.79 62.398 27.87 62.618 28.03ZM72.3125 31.3C70.3525 31.3 68.8125 30.74 67.6925 29.62C66.5925 28.5 66.0425 26.94 66.0425 24.94V17.2C66.0425 16.82 66.1425 16.53 66.3425 16.33C66.5425 16.11 66.8125 16 67.1525 16C67.4925 16 67.7525 16.11 67.9325 16.33C68.1325 16.53 68.2325 16.82 68.2325 17.2V24.94C68.2325 26.36 68.6125 27.46 69.3725 28.24C70.1325 29.02 71.1925 29.41 72.5525 29.41C73.6325 29.41 74.5925 29.17 75.4325 28.69C76.2725 28.21 76.9225 27.54 77.3825 26.68C77.8625 25.82 78.1025 24.83 78.1025 23.71V17.2C78.1025 16.82 78.1925 16.53 78.3725 16.33C78.5725 16.11 78.8525 16 79.2125 16C79.5525 16 79.8125 16.11 79.9925 16.33C80.1925 16.53 80.2925 16.82 80.2925 17.2V30.1C80.2925 30.48 80.1925 30.78 79.9925 31C79.8125 31.2 79.5525 31.3 79.2125 31.3C78.8525 31.3 78.5725 31.19 78.3725 30.97C78.1925 30.75 78.1025 30.46 78.1025 30.1V28.33C77.3625 29.29 76.5025 30.03 75.5225 30.55C74.5425 31.05 73.4725 31.3 72.3125 31.3ZM91.7023 31.3C89.2223 31.3 87.2623 30.63 85.8223 29.29C84.4023 27.93 83.6923 26.08 83.6923 23.74C83.6923 22.26 84.0023 20.94 84.6223 19.78C85.2623 18.6 86.1823 17.68 87.3823 17.02C88.6023 16.34 90.0623 16 91.7623 16C93.2023 16 94.4223 16.27 95.4223 16.81C96.4423 17.35 97.3423 18.1 98.1223 19.06L98.1523 9.43C98.1523 9.05 98.2423 8.76 98.4223 8.56C98.6223 8.34 98.9023 8.23 99.2623 8.23C99.6023 8.23 99.8623 8.34 100.042 8.56C100.242 8.76 100.342 9.05 100.342 9.43V30.1C100.342 30.48 100.242 30.78 100.042 31C99.8623 31.2 99.6023 31.3 99.2623 31.3C98.9223 31.3 98.6523 31.2 98.4523 31C98.2523 30.78 98.1523 30.48 98.1523 30.1V28.18C97.4523 29.2 96.5523 29.98 95.4523 30.52C94.3723 31.04 93.1223 31.3 91.7023 31.3ZM91.8823 29.41C93.8223 29.41 95.3523 28.9 96.4723 27.88C97.5923 26.84 98.1523 25.43 98.1523 23.65C98.1523 22.47 97.8623 21.45 97.2823 20.59C96.7223 19.71 95.9623 19.04 95.0023 18.58C94.0623 18.12 93.0323 17.89 91.9123 17.89C90.0323 17.89 88.5623 18.43 87.5023 19.51C86.4423 20.57 85.9123 21.98 85.9123 23.74C85.9123 25.62 86.4323 27.04 87.4723 28C88.5123 28.94 89.9823 29.41 91.8823 29.41ZM111.862 31.3C109.262 31.3 107.252 30.63 105.832 29.29C104.412 27.95 103.702 26.05 103.702 23.59C103.702 21.23 104.422 19.38 105.862 18.04C107.302 16.68 109.272 16 111.772 16C113.312 16 114.682 16.25 115.882 16.75C117.082 17.23 118.012 17.92 118.672 18.82C119.352 19.7 119.692 20.71 119.692 21.85C119.692 22.69 119.452 23.34 118.972 23.8C118.512 24.26 117.872 24.49 117.052 24.49H105.952C105.952 26.03 106.472 27.24 107.512 28.12C108.552 28.98 110.002 29.41 111.862 29.41C113.002 29.41 113.982 29.29 114.802 29.05C115.622 28.79 116.392 28.38 117.112 27.82C117.492 27.5 117.802 27.34 118.042 27.34C118.222 27.34 118.392 27.42 118.552 27.58C118.832 27.82 118.972 28.07 118.972 28.33C118.972 28.53 118.852 28.75 118.612 28.99C117.792 29.77 116.832 30.35 115.732 30.73C114.632 31.11 113.342 31.3 111.862 31.3ZM116.392 22.72C116.752 22.72 117.022 22.65 117.202 22.51C117.382 22.35 117.472 22.07 117.472 21.67C117.472 20.95 117.232 20.3 116.752 19.72C116.272 19.14 115.592 18.69 114.712 18.37C113.852 18.05 112.872 17.89 111.772 17.89C109.992 17.89 108.582 18.33 107.542 19.21C106.522 20.07 106.012 21.24 106.012 22.72H116.392ZM124.196 31.3C123.856 31.3 123.586 31.2 123.386 31C123.206 30.78 123.116 30.48 123.116 30.1V17.2C123.116 16.82 123.206 16.53 123.386 16.33C123.566 16.11 123.836 16 124.196 16C124.536 16 124.796 16.11 124.976 16.33C125.176 16.53 125.276 16.82 125.276 17.2V18.97C126.016 17.99 126.906 17.25 127.946 16.75C129.006 16.25 130.166 16 131.426 16C133.326 16 134.786 16.53 135.806 17.59C136.846 18.65 137.366 20.17 137.366 22.15V30.1C137.366 30.48 137.266 30.78 137.066 31C136.866 31.2 136.596 31.3 136.256 31.3C135.896 31.3 135.626 31.2 135.446 31C135.266 30.78 135.176 30.48 135.176 30.1V22.15C135.176 19.31 133.836 17.89 131.156 17.89C129.396 17.89 127.976 18.41 126.896 19.45C125.836 20.49 125.306 21.87 125.306 23.59V30.1C125.306 30.46 125.206 30.75 125.006 30.97C124.826 31.19 124.556 31.3 124.196 31.3ZM151.446 28.03C151.666 28.21 151.776 28.42 151.776 28.66C151.776 28.86 151.686 29.1 151.506 29.38C151.086 29.96 150.506 30.43 149.766 30.79C149.026 31.13 148.266 31.3 147.486 31.3C146.166 31.3 145.126 30.91 144.366 30.13C143.606 29.35 143.226 28.28 143.226 26.92V18.13H141.606C140.806 18.13 140.406 17.82 140.406 17.2C140.406 16.92 140.506 16.7 140.706 16.54C140.926 16.38 141.226 16.3 141.606 16.3H143.226V11.17C143.226 10.79 143.316 10.5 143.496 10.3C143.696 10.08 143.976 9.97 144.336 9.97C144.676 9.97 144.936 10.08 145.116 10.3C145.316 10.5 145.416 10.79 145.416 11.17V16.3H149.496C149.856 16.3 150.136 16.38 150.336 16.54C150.556 16.68 150.666 16.9 150.666 17.2C150.666 17.82 150.276 18.13 149.496 18.13H145.416V27.1C145.416 28.64 146.136 29.41 147.576 29.41C148.036 29.41 148.456 29.32 148.836 29.14C149.216 28.96 149.596 28.67 149.976 28.27C150.276 27.95 150.566 27.79 150.846 27.79C151.026 27.79 151.226 27.87 151.446 28.03ZM161.381 31.3C159.981 31.3 158.661 31.04 157.421 30.52C156.181 29.98 155.201 29.24 154.481 28.3C154.341 28.1 154.271 27.9 154.271 27.7C154.271 27.5 154.321 27.33 154.421 27.19C154.541 27.03 154.691 26.91 154.871 26.83C155.031 26.77 155.161 26.74 155.261 26.74C155.441 26.74 155.591 26.79 155.711 26.89C155.851 26.97 156.011 27.11 156.191 27.31C157.491 28.69 159.221 29.38 161.381 29.38C162.421 29.38 163.261 29.2 163.901 28.84C164.541 28.48 164.861 27.98 164.861 27.34C164.861 26.88 164.731 26.51 164.471 26.23C164.231 25.93 163.811 25.66 163.211 25.42C162.631 25.16 161.671 24.8 160.331 24.34C159.031 23.9 158.011 23.48 157.271 23.08C156.531 22.68 155.981 22.23 155.621 21.73C155.261 21.21 155.081 20.58 155.081 19.84C155.081 18.68 155.581 17.75 156.581 17.05C157.601 16.35 158.951 16 160.631 16C161.871 16 163.021 16.22 164.081 16.66C165.141 17.08 165.941 17.65 166.481 18.37C166.641 18.59 166.721 18.8 166.721 19C166.721 19.3 166.561 19.54 166.241 19.72C166.041 19.84 165.841 19.9 165.641 19.9C165.301 19.9 164.981 19.75 164.681 19.45C164.161 18.93 163.591 18.55 162.971 18.31C162.351 18.05 161.561 17.92 160.601 17.92C159.541 17.92 158.731 18.09 158.171 18.43C157.611 18.77 157.331 19.25 157.331 19.87C157.331 20.33 157.441 20.7 157.661 20.98C157.901 21.24 158.271 21.48 158.771 21.7C159.291 21.9 160.191 22.21 161.471 22.63C162.911 23.11 164.021 23.57 164.801 24.01C165.601 24.43 166.171 24.9 166.511 25.42C166.871 25.94 167.051 26.58 167.051 27.34C167.051 28.54 166.521 29.5 165.461 30.22C164.421 30.94 163.061 31.3 161.381 31.3ZM171.629 30.97C171.149 30.97 170.739 30.81 170.399 30.49C170.059 30.15 169.889 29.76 169.889 29.32C169.889 28.86 170.059 28.46 170.399 28.12C170.739 27.78 171.149 27.61 171.629 27.61C172.089 27.61 172.489 27.78 172.829 28.12C173.169 28.46 173.339 28.86 173.339 29.32C173.339 29.76 173.169 30.15 172.829 30.49C172.489 30.81 172.089 30.97 171.629 30.97ZM181.014 12.73C180.574 12.73 180.194 12.58 179.874 12.28C179.554 11.98 179.394 11.63 179.394 11.23C179.394 10.81 179.554 10.45 179.874 10.15C180.194 9.85 180.574 9.7 181.014 9.7C181.454 9.7 181.834 9.85 182.154 10.15C182.494 10.45 182.664 10.81 182.664 11.23C182.664 11.63 182.494 11.98 182.154 12.28C181.834 12.58 181.454 12.73 181.014 12.73ZM176.904 39.76C176.584 39.76 176.324 39.67 176.124 39.49C175.924 39.31 175.824 39.07 175.824 38.77C175.824 38.49 175.924 38.26 176.124 38.08C176.324 37.92 176.584 37.84 176.904 37.84C177.724 37.84 178.344 37.74 178.764 37.54C179.184 37.36 179.474 37.03 179.634 36.55C179.814 36.09 179.904 35.4 179.904 34.48L179.934 17.2C179.934 16.82 180.024 16.53 180.204 16.33C180.384 16.11 180.654 16 181.014 16C181.374 16 181.644 16.11 181.824 16.33C182.024 16.53 182.124 16.82 182.124 17.2L182.094 34.48C182.094 36.22 181.704 37.53 180.924 38.41C180.144 39.31 178.804 39.76 176.904 39.76ZM194.424 31.3C192.684 31.3 191.194 30.95 189.954 30.25C188.714 29.55 187.774 28.62 187.134 27.46C186.514 26.28 186.204 25.01 186.204 23.65C186.204 22.29 186.514 21.03 187.134 19.87C187.774 18.69 188.714 17.75 189.954 17.05C191.194 16.35 192.684 16 194.424 16C196.164 16 197.644 16.35 198.864 17.05C200.104 17.75 201.034 18.69 201.654 19.87C202.294 21.03 202.614 22.29 202.614 23.65C202.614 25.01 202.294 26.28 201.654 27.46C201.034 28.62 200.104 29.55 198.864 30.25C197.644 30.95 196.164 31.3 194.424 31.3ZM194.424 29.41C196.224 29.41 197.664 28.9 198.744 27.88C199.844 26.86 200.394 25.45 200.394 23.65C200.394 21.85 199.844 20.44 198.744 19.42C197.664 18.4 196.224 17.89 194.424 17.89C192.604 17.89 191.144 18.4 190.044 19.42C188.964 20.44 188.424 21.85 188.424 23.65C188.424 25.45 188.964 26.86 190.044 27.88C191.144 28.9 192.604 29.41 194.424 29.41ZM207.105 31.3C206.765 31.3 206.495 31.2 206.295 31C206.115 30.78 206.025 30.48 206.025 30.1V9.43C206.025 9.05 206.115 8.76 206.295 8.56C206.495 8.34 206.765 8.23 207.105 8.23C207.445 8.23 207.715 8.34 207.915 8.56C208.115 8.76 208.215 9.05 208.215 9.43L208.245 19.06C209.925 17.02 212.075 16 214.695 16C216.315 16 217.725 16.31 218.925 16.93C220.125 17.55 221.045 18.44 221.685 19.6C222.345 20.74 222.675 22.09 222.675 23.65C222.675 26.09 221.975 27.98 220.575 29.32C219.175 30.64 217.205 31.3 214.665 31.3C211.845 31.3 209.695 30.26 208.215 28.18V30.1C208.215 30.46 208.115 30.75 207.915 30.97C207.735 31.19 207.465 31.3 207.105 31.3ZM214.515 29.41C216.475 29.41 217.955 28.93 218.955 27.97C219.955 26.99 220.455 25.55 220.455 23.65C220.455 21.85 219.925 20.44 218.865 19.42C217.805 18.4 216.355 17.89 214.515 17.89C213.315 17.89 212.235 18.14 211.275 18.64C210.315 19.12 209.565 19.8 209.025 20.68C208.485 21.56 208.215 22.55 208.215 23.65C208.215 25.43 208.775 26.84 209.895 27.88C211.015 28.9 212.555 29.41 214.515 29.41Z" fill="white"/>
        <path d="M43 7.81818L38.3514 0H12.7838L0 21.5L12.7838 43H38.3514L43 35.1818" stroke="white" stroke-width="2"/>
    </g>
    <defs>
        <clipPath id="clip0">
        <rect width="224" height="43" fill="white"/>
        </clipPath>
    </defs>
</svg>
